<?xml version="1.0" ?><svg id="Camada_1" style="fill:none;stroke:#ffff;stroke-linecap:round;stroke-linejoin:round;stroke-miterlimit:10;" version="1.1" viewBox="0 0 120 120" xml:space="preserve" xmlns="http://www.w3.org/2000/svg" xmlns:xlink="http://www.w3.org/1999/xlink"><path d="M94.6,54c3.1-3.5,5-8,5-13c0-10.8-8.8-19.6-19.6-19.6c-7.4,0-13.9,4.1-17.2,10.2c-0.9-0.1-1.8-0.2-2.8-0.2  c-0.9,0-1.9,0.1-2.8,0.2c-3.3-6.1-9.8-10.2-17.2-10.2c-10.8,0-19.6,8.8-19.6,19.6c0,5,1.9,9.5,5,13c-7.9,3.4-13.5,11.3-13.5,20.4  v11.8c0,1.4,1.1,2.5,2.5,2.5h17.5v7.5c0,1.4,1.1,2.5,2.5,2.5h51.2c1.4,0,2.5-1.1,2.5-2.5v-7.5h17.5c1.4,0,2.5-1.1,2.5-2.5V74.4  C108.1,65.2,102.6,57.3,94.6,54z M103.1,83.7h-15c-0.3-8.8-5.7-16.4-13.5-19.7c1-1.1,1.9-2.3,2.6-3.6c0.9,0.1,1.8,0.2,2.8,0.2  c3.7,0,7.2-1.1,10.1-2.9c7.5,1.9,13,8.6,13,16.6V83.7z M36.9,93.7v-9.3c0-8,5.5-14.8,13-16.6c3,1.8,6.4,2.9,10.1,2.9  c3.7,0,7.2-1.1,10.1-2.9c7.5,1.9,13,8.6,13,16.6v9.3H36.9z M16.9,74.4c0-8,5.5-14.8,13-16.6c3,1.8,6.4,2.9,10.1,2.9  c0.9,0,1.9-0.1,2.8-0.2c0.7,1.3,1.6,2.5,2.6,3.6c-7.7,3.3-13.2,10.9-13.5,19.7h-15V74.4z M25.4,41c0-8.1,6.6-14.6,14.6-14.6  c5.1,0,9.6,2.6,12.2,6.6c-6.9,3-11.8,9.9-11.8,18c0,1.6,0.2,3.1,0.6,4.6c-0.3,0-0.6,0-0.9,0C31.9,55.6,25.4,49,25.4,41z M80,26.3  c8.1,0,14.6,6.6,14.6,14.6S88.1,55.6,80,55.6c-0.3,0-0.6,0-0.9,0c0.4-1.5,0.6-3,0.6-4.6c0-8-4.9-15-11.8-18  C70.4,29,74.9,26.3,80,26.3z M74.6,51c0,8.1-6.6,14.6-14.6,14.6c-8.1,0-14.6-6.6-14.6-14.6c0-8.1,6.6-14.6,14.6-14.6  C68.1,36.3,74.6,42.9,74.6,51z"/></svg>