<svg width="20" fill="currentColor" viewBox="0 0 20 20" id="icon-inboxFilled"><path fill="currentColor" d="M11.288 17.297c.49-.122.965-.326 1.403-.611l5.43-3.538c.164-.107.319-.23.46-.364a2.26 2.26 0 01-1.002 2.257l-4.946 3.223a4.536 4.536 0 01-.89.45 6.111 6.111 0 01-3.237-.024 4.54 4.54 0 01-.738-.37l-5.253-3.25a2.27 2.27 0 01-1.047-2.286c.158.15.334.285.526.405l5.743 3.554c.392.243.812.422 1.244.537a3.055 3.055 0 002.307.017zm6.954-2.918c-.172.264-.398.49-.663.662l-4.946 3.223a4.538 4.538 0 01-4.865.057l-5.253-3.252a2.27 2.27 0 01-1.047-2.285c.158.15.334.285.526.405l5.743 3.554a4.62 4.62 0 004.954-.057l5.43-3.538c.164-.107.319-.23.46-.364a2.26 2.26 0 01-.34 1.595z"></path><path fill="currentColor" d="M11.288 14.14c.49-.122.965-.326 1.403-.611l5.43-3.538c.164-.107.319-.23.46-.364a2.26 2.26 0 01-1.002 2.257l-4.946 3.223a4.536 4.536 0 01-.89.45 6.111 6.111 0 01-3.237-.024 4.54 4.54 0 01-.738-.37l-5.253-3.25a2.27 2.27 0 01-1.047-2.286c.158.15.334.286.526.405l5.743 3.554c.392.243.812.422 1.244.537a3.055 3.055 0 002.307.018zm6.954-2.918c-.172.264-.398.49-.663.662l-4.946 3.223a4.538 4.538 0 01-4.865.057l-5.253-3.251a2.27 2.27 0 01-1.047-2.286c.158.15.334.286.526.405l5.743 3.554a4.62 4.62 0 004.954-.057l5.43-3.538c.164-.107.319-.23.46-.364a2.26 2.26 0 01-.34 1.595z"></path><path fill="currentColor" d="M2.642 8.652c-1.637-.967-1.637-3.337 0-4.304L8.728.752a2.5 2.5 0 012.544 0l6.086 3.596c1.637.967 1.637 3.337 0 4.304l-6.086 3.597a2.5 2.5 0 01-2.544 0L2.642 8.652z"></path></svg>